<svg xmlns="http://www.w3.org/2000/svg" viewBox="0 0 95.32 157.157" height="57.157" width="25.32"><svg xmlns="http://www.w3.org/2000/svg" xmlns:xlink="http://www.w3.org/1999/xlink" viewBox="33.942 23.625 32.086 52.902" xml:space="preserve" height="157.157" width="95.32" class="icon-icon-0" data-fill-palette-color="accent"><path fill-rule="evenodd" clip-rule="evenodd" d="M52.9 35.3c.3.1.4.1.6-.1.1-.1.2-.1.3-.2s.2-.1.3-.2.2-.1.3-.2.2-.1.3-.2.5-.4.7-.5c.1-.1.3-.3.4-.3s.2-.2.3-.2.2-.2.3-.2.2-.2.3-.2l.2-.1.1-.2h.2l.1-.2h.2l.1-.2c.2-.1.3-.1.5-.2.1 0 0-.1.1-.1l.2-.1.1-.2h.2l.1-.2h.2l.1-.2h.2l.1-.2h.2l.1-.2c.2-.1.4-.1.7-.3l.1-.1c.1-.1.3 0 .4-.1l.1-.2h.2c.1-.1.1-.3.2-.3.5-.3 1-.6 1.4-.7 1-.1 1.6.5 2.4 1.1.1.2-.1.4 0 .6s.1.7 0 1.1v.2c-.1.1-.2.3-.3.5 0 .1 0 .2-.1.3 0 .1-.2.1-.2.1-.2.3-.4.5-.6.8s-.3.6-.5.8c-.3.3-.8.4-1.2.7-.1.1-.2.3-.4.4-.1.1-.5.3-.7.4-.1 0 0 .1-.1.1s-.2.2-.3.2-.3.2-.5.3c-.1.1-.1.2-.2.2h-.2l-.1.2c-.1.1-.2 0-.3.1s-.1.2-.2.3-.2 0-.3.1c-.2.1-.3.4-.5.5-.1.1-.1.1-.2.1s-.2.2-.3.3h-.2l-.1.2h-.2l-.1.2h-.2l-.1.2c-.1.1-.2 0-.3.1-.2.1-.3.4-.5.5l-.9.9c-.1.2-.4.2-.4.5.1.4.2.5.5.7.1 0 .2.1.2.1l.4.4c.1.1.2 0 .3.1.1 0 .1.2.1.2.1.1.2 0 .3.1.1 0 .1.2.2.2.1.1.3.2.4.3s.2 0 .3.1.2.4.4.6c.4.1.8.2 1.1.5l.4.4c.1.1.1.2.2.2h.2c.1.1.3.2.5.4.1.1.1.2.2.2h.2c.1.1.3.3.5.4.1.1.1.2.2.2h.2c.1.1.3.3.5.4.1 0 .2 0 .3.1s.3.4.5.6c.1 0 .2.2.2.2h.2v.1c.1.1.2 0 .3.1.1 0 .1.2.2.2.1.1.2 0 .3.1.2.1.3.4.5.6.1.1.3.2.4.3s0 .3.1.4l.2.1v.2l.2.1c.1.2 0 .3.2.4.1.4-.1.7-.1 1 .1 0 .1.1.1.2s.2.3.1.6c-.1.4-.8 1-1.2 1.2-.1.3-.3.5-.5.7-.2.1-.5.1-.7.2.1 0-.6.3-.7.1-.1-.1-.1-.1-.3-.1h-.2c-.1-.1-.9-.1-1.2-.2 0 0 0-.1-.1-.1s-.2-.2-.4-.2l-.3-.1-.3-.3c-.1 0-.1-.1-.2-.1l-.3-.1c.4.3.4.1.2 0l-.2-.1-.3-.3h-.2l-.1-.2h-.2c-.1-.1-.1-.3-.3-.3l-.2-.1-.3-.3c-.1 0-.1-.1-.2-.1-.1-.1-.3-.3-.4-.3s-.1-.2-.2-.2H57l-.3-.3c-.1 0-.1-.1-.2-.1l-.1-.1c-.4-.2-.8-.1-1.1-.3-.1 0 0-.1-.1-.1-.2 0-.2-.3-.4-.4h-.2c-.1-.1-.1-.2-.3-.3-.1-.1-.2-.1-.3-.2s-.2-.1-.3-.2-.5-.4-.8-.4c-.2.1-.2.2-.3.4s-.1.4-.1.6c-.1.6 0 1.2-.1 2 0 .3-.1.7-.1 1.2 0 .3.1.3 0 .6 0 .1.2.9 0 1-.3.3-.3 1-.3 1.4s0 .8-.1 1.2c0 .4-.2.8-.2 1.1-.1 1 0 1.9 0 2.9v.2c-.1.6 0 1.8 0 2.7 0 .3-.1.5-.1.7 0 .3.1.6.1.9.1.9.1 2 .1 3 0 .8 0 1.7-.1 2.4-.1.3 0 .8-.1 1.3 0 .3-.1.6-.2.8-.2.7-.3 1.7-.3 2.7-.1.1-.2.1-.3.2l-.1.2c-.1.1-.3 0-.4.1-.2.1-.5.3-1 .2-.2 0-.7-.4-1.1-.5H48l-.3-.1c-.1-.2-.3-.2-.5-.4l-.4-.4c-.4-.3-.6-.5-.7-.8-.2-.4-.1-.8-.1-1.3-.1-1.1-.1-2.1-.1-3.4 0 0 .1 0 .1-.1 0 0-.1 0-.1-.1v-.3c0-1.3 0-2.6.1-4 0-.2.1-.4.1-.6.1-1.9-.2-4.2 0-6.2.1-.9.1-1.7.1-2.6 0-1.9-.2-3.8 0-5.4.1-.9.5-1.7 0-2.5-.4-.2-.7.3-1 .3-.1 0-.2.2-.3.2s-.1.1-.2.1-.1.2-.2.2h-.2v.1c-.1 0-.2 0-.3.1l-.1.2c-.1.1-.2 0-.3.1l-.1.2c-.1.1-.2 0-.3.1s-.2.4-.4.5c-.1.1-.2 0-.3.1l-.1.2c-.1.1-.2 0-.3.1s-.3.4-.5.5c-.1.1-.3.2-.4.3s-.1.2-.2.2h-.2c-.5.5-.5.7-.8.7-.2 0-.2.3-.4.3-.1 0-.1.2-.2.2h-.2v.1c-.3.2-.6.1-.9.2 0 0 0 .1-.1.1-.2 0-.8.4-1.2.3 0 0 0-.1-.1-.1-.2 0-.3 0-.5-.1-.1 0-.3 0-.4-.1l-.4-.4c-.1-.1-.3-.3-.4-.5-.2 0-.2 0-.2-.2 0-.1-.1-.1-.1-.1-.1-.4-.1-1.5.2-2 0-.1.1 0 .1-.1s.3-.4.4-.5h.2c.1-.1.1-.2.3-.3s.6-.3.8-.5c.3-.3.4-.6.8-.8.1 0 .1-.1.2-.1.1-.1.2-.1.3-.2s.2-.1.3-.2.3-.1.3-.1c.1-.1.1-.3.3-.3.1 0 .2-.2.3-.2s.2-.2.3-.2.3-.3.5-.4c.2-.2.5-.3.8-.5s.9-.6 1.4-1c.1 0 0-.1.1-.1s.2-.2.4-.2c.1 0 .2-.2.3-.2s.3-.1.4-.2c.6-.4 1.6-.7 1.1-1.6 0-.1-.1 0-.1-.1 0-.2-.6-.6-.8-.8l-.6-.6c-.3-.2-.6-.2-.8-.4-.1-.3-.5-.6-.7-.9-.1-.1-.2-.3-.3-.5-.1-.1-.4-.4-.6-.5-.1-.1-.5-.4-.7-.5-.1 0-.2 0-.3-.1l-.1-.2c-.1-.1-.2-.1-.4-.2-.1-.1-.2-.1-.3-.2l-.2-.2c-.2-.1-.4-.3-.6-.4l-.1-.2c-.1-.1-.2-.1-.4-.2l-.1-.2c-.1-.1-.2-.1-.4-.2l-.1-.2c-.1-.1-.3-.1-.4-.2l-.4-.4c-.1-.1 0-.2-.1-.3 0 0-.2 0-.2-.1-.1-.2-.2-.3-.3-.5-.1-.1-.3-.2-.4-.3s0-.2-.1-.3-.5-.3-.6-.5c-.1-.1 0-.2-.1-.3l-.2-.1c-.1-.1-.1-.2-.1-.3l-.1-.4c-.3-.2-.1-2.1 0-2.5 0-.1.1 0 .1-.1s.2-.2.3-.3.2-.2.4-.3c.1 0 .1-.1.2-.1s.4-.3.6-.3c.1 0 .2-.2.3-.2s.3-.2.6-.2c1-.1 1.7.6 2.8.4l.3.3c.5.4 1 1 1.6 1.5.3.2.5.5.8.7.1.1.2.1.3.2 0 0 .4.4.5.4l.2.1.1.2h.2c.1.1.1.2.2.3h.2c.1.1.1.2.3.3s.5.3.7.5c.1.1.2.1.3.2l.1.2h.2c.1.1.1.2.2.3h.2c.1.1.4.5.7.5.4-.5.3-1 .4-1.7.1-1.7-.1-4.1.2-5.7 0-.2.1-.5.2-.7 0-.1 0-.3.1-.4 0-.1.2-.1.2-.2.2-.3.5-.6.8-.8.1-.1.2-.3.3-.3.1-.1.4-.1.6-.1.1 0 .2-.2.2-.2h.3c.3-.1.5-.1 1.1 0 .3 0 .5 0 .7.1 0 0 0 .1.1.1s.9.7.9.9c0 0 .1.1.1.2.1.2.1.3.2.5 0 .1.1.2.1.3.1.3.3 1.7.2 2.4-.1.5-.1 1.7-.1 2.6-.3 1.3-.3 3-.2 4.5" fill="#F4743B" data-fill-palette-color="accent"/></svg></svg>